<?xml version="1.0" encoding="utf-8"?>
<!-- Generator: Adobe Illustrator 25.3.1, SVG Export Plug-In . SVG Version: 6.00 Build 0)  -->
<svg version="1.1" id="Шар_1" xmlns="http://www.w3.org/2000/svg" xmlns:xlink="http://www.w3.org/1999/xlink" x="0px" y="0px"
	 viewBox="0 0 20 20" style="enable-background:new 0 0 20 20;" xml:space="preserve">
<style type="text/css">
	.st0{fill:url(#SVGID_1_);}
	.st1{fill:url(#SVGID_2_);}
	.st2{fill:url(#SVGID_3_);}
</style>
<g>
	<linearGradient id="SVGID_1_" gradientUnits="userSpaceOnUse" x1="1.4733" y1="4.5547" x2="12.0369" y2="7.7828">
		<stop  offset="0" style="stop-color:#838BC5"/>
		<stop  offset="1" style="stop-color:#E39AC9"/>
	</linearGradient>
	<path class="st0" d="M12.2,4.9L4.4,0.4C2.9-0.5,1.1,0.6,1.1,2.2V3c2.2,3,5.3,7.3,6.1,8.4C7.9,10.5,10.1,7.5,12.2,4.9z"/>
	<linearGradient id="SVGID_2_" gradientUnits="userSpaceOnUse" x1="1.254" y1="13.196" x2="6.1311" y2="11.422">
		<stop  offset="0" style="stop-color:#838BC5"/>
		<stop  offset="1" style="stop-color:#4EDDB3"/>
	</linearGradient>
	<path class="st1" d="M6.2,12.5L1.1,5.6v12.1c0,1.7,1.8,2.7,3.3,1.9l1.9-1.1v-5.6C6.3,12.8,6.2,12.6,6.2,12.5z"/>
	<linearGradient id="SVGID_3_" gradientUnits="userSpaceOnUse" x1="8.326" y1="12.4911" x2="18.5116" y2="8.5385">
		<stop  offset="0" style="stop-color:#65C8D0"/>
		<stop  offset="0.5454" style="stop-color:#E26E81"/>
		<stop  offset="1" style="stop-color:#C4C99B"/>
		<stop  offset="1" style="stop-color:#000000"/>
	</linearGradient>
	<path class="st2" d="M17.8,8.1l-4.4-2.5l-5.4,7C8,12.7,8,12.8,8,13v4.6l9.8-5.7C19.3,11,19.3,9,17.8,8.1z"/>
</g>
</svg>
